<svg width="68" height="59" viewBox="0 0 68 59" fill="none" xmlns="http://www.w3.org/2000/svg">
<path d="M30.8114 42.8076L30.1043 43.5147C29.3233 44.2957 28.0569 44.2957 27.2759 43.5147L25.5485 41.7873L27.6699 39.666L30.8114 42.8076Z" fill="#B28756"/>
<path d="M27.7556 39.865L25.6343 41.9863L11.0607 27.4127C10.4749 26.8269 10.4749 25.8772 11.0606 25.2914V25.2914C11.6464 24.7056 12.5962 24.7056 13.182 25.2914L27.7556 39.865Z" fill="#B28756"/>
<path d="M64.417 1.11472C64.9713 0.499078 65.9198 0.44937 66.5354 1.0037V1.0037C67.1511 1.55802 67.2008 2.50647 66.6465 3.12211L30.4631 43.3078L28.2336 41.3005L64.417 1.11472Z" fill="#B28756"/>
<circle cx="28.0029" cy="30.9971" r="27.0029" stroke="#B28756" stroke-width="2"/>
<rect x="51.6765" y="14" width="0.84" height="4" transform="rotate(42 51.6765 14)" fill="white"/>
<rect x="53.4409" y="17.7879" width="0.839443" height="4" transform="rotate(42 53.4409 17.7879)" fill="white"/>
</svg>
