<svg width="71" height="62" viewBox="0 0 71 62" fill="none" xmlns="http://www.w3.org/2000/svg">
<path d="M0 9.87778L5.73406 5.86274L28 38.5L25 43L0 9.87778Z" fill="#B28756"/>
<path d="M45 42.3841L42.5 39.3841L40.5 36.8841L63.8878 6.16581L69.9169 10.8318L45 42.3841Z" fill="#B28756"/>
<path d="M27.9724 38.6097L24.8316 36.745L21.8337 34.3907L34.5 19.5L34.4134 29.0346L27.9724 38.6097Z" fill="#B28756"/>
<path d="M34.5 29L34.5 26.5L34.5 24L34.5 19.5L40.5 27L46.8134 34.7893L43 40L37.5 33L34.5 29Z" fill="#B28756"/>
<path d="M34.5 3L34.5 6.50002L34.5 10.5L18.5 30L12.8164 25.3975L34.5 3Z" fill="#B28756"/>
<path d="M34.4736 10.6239L34.4736 3L57.5976 25.7105L51.914 30.313L34.4736 10.6239Z" fill="#B28756"/>
<path d="M21.6413 59C21.5533 58.712 21.4533 58.416 21.3413 58.112C21.2373 57.808 21.1333 57.504 21.0293 57.2H17.7893C17.6853 57.504 17.5773 57.808 17.4653 58.112C17.3613 58.416 17.2653 58.712 17.1773 59H15.2333C15.5453 58.104 15.8413 57.276 16.1213 56.516C16.4013 55.756 16.6733 55.04 16.9373 54.368C17.2093 53.696 17.4733 53.06 17.7293 52.46C17.9933 51.852 18.2653 51.26 18.5453 50.684H20.3333C20.6053 51.26 20.8733 51.852 21.1373 52.46C21.4013 53.06 21.6653 53.696 21.9293 54.368C22.2013 55.04 22.4773 55.756 22.7573 56.516C23.0373 57.276 23.3333 58.104 23.6453 59H21.6413ZM19.3973 52.568C19.3573 52.688 19.2973 52.852 19.2173 53.06C19.1373 53.268 19.0453 53.508 18.9413 53.78C18.8373 54.052 18.7213 54.352 18.5933 54.68C18.4733 55.008 18.3493 55.352 18.2213 55.712H20.5853C20.4573 55.352 20.3333 55.008 20.2133 54.68C20.0933 54.352 19.9773 54.052 19.8653 53.78C19.7613 53.508 19.6693 53.268 19.5893 53.06C19.5093 52.852 19.4453 52.688 19.3973 52.568ZM30.3017 51.572C30.3977 51.9 30.5017 52.272 30.6137 52.688C30.7337 53.096 30.8577 53.52 30.9857 53.96C31.1217 54.4 31.2577 54.84 31.3937 55.28C31.5297 55.72 31.6617 56.128 31.7897 56.504C31.8937 56.096 31.9977 55.652 32.1017 55.172C32.2137 54.692 32.3177 54.196 32.4137 53.684C32.5097 53.172 32.6017 52.664 32.6897 52.16C32.7857 51.648 32.8737 51.156 32.9537 50.684H34.8977C34.6177 52.076 34.2937 53.488 33.9257 54.92C33.5657 56.352 33.1737 57.712 32.7497 59H31.0337C30.7537 58.232 30.4817 57.428 30.2177 56.588C29.9537 55.74 29.6937 54.892 29.4377 54.044C29.1817 54.892 28.9257 55.74 28.6697 56.588C28.4137 57.428 28.1457 58.232 27.8657 59H26.1497C25.7257 57.712 25.3297 56.352 24.9617 54.92C24.6017 53.488 24.2817 52.076 24.0017 50.684H26.0297C26.1097 51.156 26.1977 51.648 26.2937 52.16C26.3897 52.664 26.4897 53.172 26.5937 53.684C26.6977 54.196 26.8017 54.692 26.9057 55.172C27.0177 55.652 27.1297 56.096 27.2417 56.504C27.3857 56.112 27.5257 55.696 27.6617 55.256C27.7977 54.816 27.9297 54.376 28.0577 53.936C28.1857 53.496 28.3017 53.072 28.4057 52.664C28.5177 52.256 28.6177 51.892 28.7057 51.572H30.3017ZM41.6686 59C41.5806 58.712 41.4806 58.416 41.3686 58.112C41.2646 57.808 41.1606 57.504 41.0566 57.2H37.8166C37.7126 57.504 37.6046 57.808 37.4926 58.112C37.3886 58.416 37.2926 58.712 37.2046 59H35.2606C35.5726 58.104 35.8686 57.276 36.1486 56.516C36.4286 55.756 36.7006 55.04 36.9646 54.368C37.2366 53.696 37.5006 53.06 37.7566 52.46C38.0206 51.852 38.2926 51.26 38.5726 50.684H40.3606C40.6326 51.26 40.9006 51.852 41.1646 52.46C41.4286 53.06 41.6926 53.696 41.9566 54.368C42.2286 55.04 42.5046 55.756 42.7846 56.516C43.0646 57.276 43.3606 58.104 43.6726 59H41.6686ZM39.4246 52.568C39.3846 52.688 39.3246 52.852 39.2446 53.06C39.1646 53.268 39.0726 53.508 38.9686 53.78C38.8646 54.052 38.7486 54.352 38.6206 54.68C38.5006 55.008 38.3766 55.352 38.2486 55.712H40.6126C40.4846 55.352 40.3606 55.008 40.2406 54.68C40.1206 54.352 40.0046 54.052 39.8926 53.78C39.7886 53.508 39.6966 53.268 39.6166 53.06C39.5366 52.852 39.4726 52.688 39.4246 52.568ZM49.5251 59C49.2931 58.536 49.0371 58.068 48.7571 57.596C48.4851 57.116 48.1691 56.628 47.8091 56.132C47.6971 56.276 47.5531 56.476 47.3771 56.732C47.2091 56.988 47.0371 57.26 46.8611 57.548C46.6931 57.836 46.5331 58.112 46.3811 58.376C46.2291 58.64 46.1171 58.848 46.0451 59H43.9091C44.2611 58.352 44.6691 57.672 45.1331 56.96C45.6051 56.248 46.1291 55.492 46.7051 54.692L44.0291 50.684H46.2971L47.9171 53.276L49.5011 50.684H51.6371L48.9971 54.716C49.6691 55.588 50.2331 56.396 50.6891 57.14C51.1451 57.876 51.5051 58.496 51.7691 59H49.5251Z" fill="#B28756"/>
</svg>
